HIERARCHY
ROOT hip
{
	OFFSET 0.000000 0.000000 0.000000 
	CHANNELS 6 Xposition Yposition Zposition Xrotation Zrotation Yrotation
	JOINT abdomen
	{
		OFFSET 0.000000 3.402643 0.000000 
		CHANNELS 3 Xrotation Zrotation Yrotation
		JOINT chest
		{
			OFFSET 0.000000 8.438565 -0.680529 
			CHANNELS 3 Xrotation Zrotation Yrotation
			JOINT neck
			{
				OFFSET 0.000000 10.207942 -0.272212 
				CHANNELS 3 Xrotation Zrotation Yrotation
				JOINT head
				{
					OFFSET 0.000000 3.130431 0.000000 
					CHANNELS 3 Xrotation Zrotation Yrotation
					End Site
					{
						OFFSET 0.000000 3.130435 0.000000 
					}
				}
			}
			JOINT lCollar
			{
				OFFSET 3.470700 6.669187 -0.816635 
				CHANNELS 3 Yrotation Zrotation Xrotation
				JOINT lShldr
				{
					OFFSET 3.198488 0.000000 0.000000 
					CHANNELS 3 Zrotation Yrotation Xrotation
					JOINT lForeArm
					{
						OFFSET 10.139888 0.000000 0.000000 
						CHANNELS 3 Yrotation Zrotation Xrotation
						JOINT lHand
						{
							OFFSET 8.370511 0.000000 0.000000 
							CHANNELS 3 Zrotation Yrotation Xrotation
							End Site
							{
								OFFSET 4.083176 0.000000 0.000000 
							}
						}
					}
				}
			}
			JOINT rCollar
			{
				OFFSET -3.470700 6.669187 -0.816635 
				CHANNELS 3 Yrotation Zrotation Xrotation
				JOINT rShldr
				{
					OFFSET -3.198488 0.000000 0.000000 
					CHANNELS 3 Zrotation Yrotation Xrotation
					JOINT rForeArm
					{
						OFFSET -10.139888 0.000000 0.000000 
						CHANNELS 3 Yrotation Zrotation Xrotation
						JOINT rHand
						{
							OFFSET -8.370511 0.000000 0.000000 
							CHANNELS 3 Zrotation Yrotation Xrotation
							End Site
							{
								OFFSET -4.083176 0.000000 0.000000 
							}
						}
					}
				}
			}
		}
	}
	JOINT lThigh
	{
		OFFSET 5.308129 -1.633274 1.361059 
		CHANNELS 3 Xrotation Zrotation Yrotation
		JOINT lShin
		{
			OFFSET -2.041588 -20.007561 0.000000 
			CHANNELS 3 Xrotation Zrotation Yrotation
			JOINT lFoot
			{
				OFFSET 0.000000 -19.190928 -1.224953 
				CHANNELS 3 Xrotation Yrotation Zrotation
				End Site
				{
					OFFSET 0.000000 -2.449906 4.627600 
				}
			}
		}
	}
	JOINT rThigh
	{
		OFFSET -5.308129 -1.633274 1.361059 
		CHANNELS 3 Xrotation Zrotation Yrotation
		JOINT rShin
		{
			OFFSET 2.041588 -20.007561 0.000000 
			CHANNELS 3 Xrotation Zrotation Yrotation
			JOINT rFoot
			{
				OFFSET 0.000000 -19.190928 -1.224953 
				CHANNELS 3 Xrotation Yrotation Zrotation
				End Site
				{
					OFFSET 0.000000 -2.449906 4.627600 
				}
			}
		}
	}
}
MOTION
Frames: 19
Frame Time: 0.011111
58.090714 44.571098 -14.662066 7.662440 10.329967 -69.394493 58.869434 2.435565 -9.246561 -29.852732 7.580359 -3.310431 -1.899776 -4.223241 -16.842796 -44.389771 14.028771 -46.239082 -10.187975 -12.782608 -2.553061 10.075475 -44.284515 -14.161361 -120.764366 10.780998 49.822495 8.524705 12.647240 -59.153702 11.162106 9.669281 -2.390417 -6.591500 31.840191 -52.413147 120.818466 -10.771455 49.844967 -8.534408 -12.637552 74.935402 -48.622944 19.961271 -26.509562 64.389069 -2.229329 -8.523494 -36.549652 9.296389 5.352483 -51.265251 -11.484567 17.327478 60.990925 2.613271 8.240181 -31.375013 0.729587 1.859800 
58.242584 44.574280 -14.338862 7.447946 10.200701 -69.823936 58.524380 2.439544 -9.624046 -29.372614 7.748697 -3.373983 -1.705682 -4.021942 -16.958466 -45.517223 13.462978 -46.728214 -10.187975 -12.782608 -2.553061 10.743364 -43.918095 -14.803344 -120.947525 10.751767 49.899082 8.524705 12.647240 -58.401745 11.162106 9.669281 -2.390417 -6.015989 32.002007 -52.865540 121.099060 -10.726219 49.974163 -8.534408 -12.637552 75.697121 -47.853565 19.990313 -25.877783 64.203720 -2.237646 -8.504601 -37.066570 9.410944 5.619107 -51.100147 -11.767558 17.861477 60.610661 2.638258 8.185414 -31.277952 0.442913 1.693700 
58.389492 44.585609 -14.016012 7.304853 10.027292 -70.239273 58.224049 2.429851 -9.960849 -29.583622 7.992638 -3.476823 -0.949902 -3.565552 -17.146908 -46.594810 12.615770 -47.018894 -10.187975 -12.782608 -2.553061 11.118370 -43.125648 -14.873640 -121.054382 10.737805 49.941696 8.524705 12.647240 -58.128304 11.162106 9.669281 -2.390417 -5.431031 31.578287 -52.902084 121.602615 -10.650837 50.182404 -8.534408 -12.637552 77.074074 -47.329552 20.039124 -25.326763 64.262474 -2.226934 -8.502734 -37.456749 9.101594 5.605050 -50.867958 -11.943452 18.425125 60.160709 2.701178 8.155798 -31.237808 0.110516 1.518410 
58.564373 44.560120 -13.686437 7.197875 10.054712 -70.687912 57.998886 2.398304 -10.162791 -29.619463 8.328210 -3.537733 -1.282950 -3.353533 -17.254065 -46.877991 11.906306 -47.178509 -10.187975 -12.782608 -2.553061 11.717640 -42.649879 -15.939122 -122.181183 10.558837 50.427509 8.524705 12.647240 -54.192757 11.162106 9.669281 -2.390417 -5.224543 31.541225 -52.869473 121.849617 -10.610378 50.289028 -8.534408 -12.637552 77.747910 -47.318897 19.960745 -24.635214 64.642990 -2.185545 -8.535852 -37.656200 8.853517 5.531448 -50.991302 -12.168467 19.040443 59.720539 2.760042 8.124166 -31.034771 -0.017891 1.481053 
58.731457 44.540295 -13.370313 7.065115 10.057920 -71.166931 57.776466 2.334351 -10.480630 -29.378908 8.663506 -3.613189 -1.995589 -3.187098 -17.239492 -46.958118 11.256849 -47.111534 -10.187975 -12.782608 -2.553061 12.036142 -41.904175 -15.981173 -121.516426 10.664800 50.137897 8.524705 12.647240 -56.673225 11.162106 9.669281 -2.390417 -5.104807 32.093983 -52.842720 121.731865 -10.629599 50.245441 -8.534408 -12.637552 77.249855 -47.407230 19.853251 -23.766039 65.228897 -2.117074 -8.568123 -37.725128 8.412012 5.294415 -51.088795 -12.334723 19.786266 59.212563 2.817247 8.066468 -30.887358 0.009380 1.523520 
58.870232 44.546669 -13.058791 6.858460 9.794040 -71.590149 57.826061 2.262967 -10.772164 -29.313540 8.866133 -3.667971 -2.492075 -2.907680 -17.245422 -47.095440 10.522462 -47.010387 -10.187975 -12.782608 -2.553061 12.425136 -41.417599 -15.995056 -121.011269 10.744308 49.921062 8.524705 12.647240 -58.557991 11.162106 9.669281 -2.390417 -4.817111 32.367069 -52.740055 121.623512 -10.650176 50.193409 -8.534408 -12.637552 76.751816 -47.128757 19.755587 -22.790297 65.853485 -2.039674 -8.607205 -37.806496 7.781250 4.922827 -50.678101 -12.490722 20.452579 58.674004 2.867624 8.040771 -30.983118 0.104739 1.570690 
59.010059 44.558708 -12.729214 6.671334 9.521604 -72.111008 57.787643 2.135994 -10.907775 -29.344402 8.930772 -3.690983 -2.508503 -2.618463 -17.208054 -47.582600 9.816827 -46.814999 -10.187975 -12.782608 -2.553061 12.924438 -40.898987 -16.272842 -120.839088 10.770508 49.844494 8.524705 12.647240 -59.515022 11.162106 9.669281 -2.390417 -4.530163 32.298424 -52.421223 121.602615 -10.650837 50.182404 -8.534408 -12.637552 76.917824 -46.846039 19.706364 -21.643877 66.438278 -1.959985 -8.659862 -37.650711 7.612352 4.765956 -50.241787 -12.588232 21.150843 58.097397 2.936112 7.972963 -31.032515 0.081871 1.554311 
59.158733 44.566494 -12.399284 6.570259 9.464753 -72.718597 57.455093 1.945195 -10.960352 -29.248495 9.066669 -3.664446 -2.693515 -2.428169 -17.153351 -47.898064 8.973507 -46.499668 -10.187975 -12.782608 -2.553061 13.298283 -40.285137 -16.714031 -121.001610 10.742006 49.919632 8.524705 12.647240 -59.397839 11.162106 9.669281 -2.390417 -4.379686 32.146717 -51.925350 121.484833 -10.669452 50.138577 -8.534408 -12.637552 77.005714 -46.773209 19.745815 -20.463371 66.926353 -1.910366 -8.684826 -37.595089 7.378086 4.589696 -50.126244 -12.617205 21.997864 57.451557 3.014387 7.913674 -30.867889 -0.008849 1.533441 
59.310963 44.573574 -12.095197 6.505153 9.393096 -73.176132 57.184010 1.783882 -11.015188 -29.037008 9.362521 -3.655887 -3.057111 -2.456620 -17.085245 -48.159245 8.375036 -46.320461 -10.187975 -12.782608 -2.553061 13.585753 -39.881805 -17.067200 -121.108444 10.727922 49.964031 8.524705 12.647240 -58.870499 11.162106 9.669281 -2.390417 -4.366755 32.068092 -51.425915 121.303055 -10.695118 50.061272 -8.534408 -12.637552 76.673691 -46.650967 19.784174 -19.525253 67.277328 -1.862416 -8.709751 -37.863525 6.698431 4.268354 -49.974148 -12.696154 22.679970 56.726910 3.073244 7.865624 -30.602858 0.026859 1.592757 
59.465660 44.615700 -11.793232 6.469031 9.175798 -73.395180 57.114933 1.860509 -11.133727 -29.060078 9.532035 -3.709912 -2.978080 -2.379072 -16.968330 -48.684948 7.896708 -46.047386 -10.187975 -12.782608 -2.553061 14.030853 -39.390839 -17.466753 -121.280594 10.700732 50.040215 8.524705 12.647240 -57.806042 11.162106 9.669281 -2.390417 -4.294541 32.192738 -50.960106 121.259972 -10.701850 50.040726 -8.534408 -12.637552 76.390480 -46.342232 19.726027 -18.919218 67.462357 -1.842267 -8.730077 -38.085041 6.269193 4.074084 -49.495121 -12.930709 23.160572 55.904613 3.170688 7.781159 -30.443184 0.156670 1.686002 
59.611511 44.699955 -11.468966 6.470608 8.886683 -73.652733 56.957310 2.007537 -11.114307 -29.405371 9.481966 -3.754577 -2.272374 -1.983148 -16.948879 -49.591351 7.041359 -45.767250 -10.187975 -12.782608 -2.553061 14.409081 -38.700066 -17.627522 -121.784363 10.624065 50.255684 8.524705 12.647240 -56.331425 11.162106 9.669281 -2.390417 -4.050346 31.901340 -50.386292 121.355553 -10.690020 50.073471 -8.534408 -12.637552 76.204941 -45.855713 19.687021 -18.321867 67.501411 -1.842111 -8.732901 -37.924320 6.809426 4.354154 -48.800709 -13.116470 23.620569 54.944664 3.278340 7.688814 -30.324100 0.212717 1.737253 
59.738945 44.801552 -11.125938 6.522382 8.712343 -74.155457 56.457642 2.005631 -10.872113 -29.581474 9.373044 -3.701489 -1.372760 -1.669067 -17.001892 -50.718369 6.035027 -45.624512 -10.187975 -12.782608 -2.553061 14.558677 -38.072906 -17.410662 -122.147781 10.568525 50.406876 8.524705 12.647240 -55.657604 11.162106 9.669281 -2.390417 -3.865994 30.967129 -49.904118 121.430504 -10.679191 50.106689 -8.534408 -12.637552 76.185402 -45.388538 19.745695 -17.656235 67.511269 -1.833087 -8.727884 -37.791016 7.489386 4.726133 -48.275757 -13.145490 24.217709 53.886028 3.386249 7.595968 -30.072411 0.093166 1.718540 
59.866741 44.876598 -10.773352 6.571192 8.629011 -74.693253 55.909687 2.009049 -10.688063 -29.522881 9.400039 -3.665481 -0.731307 -1.626021 -16.930674 -51.777180 5.231133 -45.386147 -10.187975 -12.782608 -2.553061 14.584106 -37.359226 -17.120577 -122.041016 10.584867 50.363358 8.524705 12.647240 -56.145885 11.162106 9.669281 -2.390417 -3.945670 30.070591 -49.886589 121.537331 -10.664170 50.150711 -8.534408 -12.637552 76.585800 -45.018494 19.734699 -17.052519 67.588867 -1.815862 -8.741903 -37.961235 7.517867 4.816259 -47.881107 -13.224249 24.821049 52.827137 3.493715 7.492438 -29.772799 -0.069472 1.657651 
59.994545 44.936424 -10.429261 6.587547 8.437464 -75.141533 55.640343 2.111467 -10.582288 -29.325840 9.440265 -3.645409 -0.828882 -1.683714 -16.795786 -52.310993 4.592927 -45.059471 -10.187975 -12.782608 -2.553061 14.758900 -36.714222 -17.142733 -122.063187 10.578270 50.374485 8.524705 12.647240 -56.038464 11.162106 9.669281 -2.390417 -4.064463 29.644369 -50.081760 121.645699 -10.643795 50.202835 -8.534408 -12.637552 76.693214 -44.616512 19.628328 -16.618574 67.735085 -1.804003 -8.754917 -38.192902 7.249497 4.735254 -47.377151 -13.389518 25.365435 51.768314 3.601311 7.367651 -29.536522 -0.022247 1.736386 
60.125874 45.007576 -10.089066 6.579352 8.256678 -75.551559 55.587440 2.287451 -10.688116 -28.987389 9.362038 -3.677017 -1.975810 -1.437403 -16.577852 -51.969761 3.880186 -44.402836 -10.187975 -12.782608 -2.553061 15.392117 -36.080593 -18.012411 -122.961632 10.427222 50.747845 8.524705 12.647240 -53.069717 11.162106 9.669281 -2.390417 -3.982692 29.788368 -50.086769 121.634468 -10.646694 50.193245 -8.534408 -12.637552 76.058449 -44.188744 19.422092 -16.173525 67.901222 -1.786487 -8.756039 -38.427128 6.950791 4.640464 -46.858120 -13.594934 25.874954 50.746624 3.708860 7.282681 -29.361238 -0.058165 1.732866 
60.272079 45.058907 -9.732939 6.568185 8.194119 -75.969505 54.959957 2.323400 -10.461630 -29.379467 9.172611 -3.640256 -0.775607 -1.384912 -16.656897 -52.905674 3.162151 -44.280182 -10.187975 -12.782608 -2.553061 15.088462 -35.364334 -16.804245 -122.383476 10.528400 50.504684 8.524705 12.647240 -55.950573 11.162106 9.669281 -2.390417 -4.021426 28.646263 -49.848721 121.688782 -10.636717 50.223244 -8.534408 -12.637552 76.136574 -43.931984 19.120537 -15.775623 68.115852 -1.764181 -8.767366 -38.550098 6.980996 4.690454 -46.533443 -13.859126 26.365574 49.696430 3.806738 7.160102 -29.042845 -0.299358 1.629727 
60.403412 45.099976 -9.377875 6.563277 8.132879 -76.424324 54.671322 2.492709 -10.464593 -29.289309 9.124770 -3.658732 -0.613995 -1.260656 -16.405321 -53.826202 2.499846 -43.752544 -10.187975 -12.782608 -2.553061 15.078841 -34.442696 -16.764555 -122.233650 10.552853 50.439384 8.524705 12.647240 -57.015030 11.162106 9.669281 -2.390417 -4.108340 28.385168 -49.941177 121.741280 -10.631227 50.237106 -8.534408 -12.637552 75.931503 -43.655445 18.817101 -15.386058 68.320282 -1.716132 -8.780046 -38.593071 7.248910 4.883868 -46.187229 -14.121831 26.872499 48.673908 3.904622 7.068418 -28.771595 -0.630848 1.522585 
60.507851 45.157322 -9.042281 6.583244 7.978874 -76.848503 54.330971 2.623507 -10.416803 -29.219198 9.086675 -3.671993 -0.406317 -1.056538 -16.185881 -54.634293 1.675874 -43.108906 -10.187975 -12.782608 -2.553061 15.049502 -33.608028 -16.573141 -122.254555 10.551955 50.450306 8.524705 12.647240 -57.552135 11.162106 9.669281 -2.390417 -4.229727 28.115435 -49.763214 121.709412 -10.635438 50.226292 -8.534408 -12.637552 75.423691 -43.292068 18.582369 -15.033433 68.486320 -1.706295 -8.785973 -38.650528 7.423647 5.025261 -45.632133 -14.316897 27.381140 47.582172 4.012274 6.953531 -28.584682 -1.038892 1.340325 
60.624310 45.212543 -8.706331 6.584458 7.957006 -77.319908 53.887009 2.641748 -10.325892 -29.078754 8.979150 -3.634274 -0.796264 -0.589196 -16.060421 -54.863960 0.501488 -42.374428 -10.187975 -12.782608 -2.553061 15.254732 -32.965286 -16.727337 -122.544479 10.500362 50.577499 8.524705 12.647240 -56.917370 11.162106 9.669281 -2.390417 -4.382977 27.700207 -49.634174 121.581985 -10.652078 50.179337 -8.534408 -12.637552 74.974464 -43.011608 18.319292 -14.650264 68.641922 -1.696077 -8.810113 -38.802494 7.448028 5.098557 -45.262470 -14.580151 27.913847 46.401981 4.119762 6.809991 -28.234835 -1.497692 1.149360 
